<mxfile host="65bd71144e">
    <diagram id="auAPXW9Fzhh5N-ocgecs" name="Page-1">
        <mxGraphModel dx="2250" dy="1028" grid="1" gridSize="10" guides="1" tooltips="1" connect="1" arrows="1" fold="1" page="1" pageScale="1" pageWidth="850" pageHeight="1100" math="0" shadow="0">
            <root>
                <mxCell id="0"/>
                <mxCell id="1" parent="0"/>
                <mxCell id="78" style="edgeStyle=none;html=1;exitX=0.5;exitY=1;exitDx=0;exitDy=0;entryX=0.5;entryY=0;entryDx=0;entryDy=0;fontFamily=Times New Roman;fontColor=#000000;fontSize=16;fontStyle=1" edge="1" parent="1" source="80" target="101">
                    <mxGeometry relative="1" as="geometry">
                        <mxPoint x="260" y="270" as="sourcePoint"/>
                        <Array as="points">
                            <mxPoint x="310" y="280"/>
                            <mxPoint x="170" y="280"/>
                        </Array>
                    </mxGeometry>
                </mxCell>
                <mxCell id="79" style="edgeStyle=none;html=1;entryX=0.5;entryY=0;entryDx=0;entryDy=0;exitX=0.5;exitY=1;exitDx=0;exitDy=0;fontFamily=Times New Roman;fontColor=#000000;fontSize=16;fontStyle=1" edge="1" parent="1" source="80" target="128">
                    <mxGeometry relative="1" as="geometry">
                        <Array as="points">
                            <mxPoint x="310" y="280"/>
                            <mxPoint x="425" y="280"/>
                        </Array>
                    </mxGeometry>
                </mxCell>
                <mxCell id="80" value="[gNB]CellGroupConfigurationInitialization" style="rounded=1;whiteSpace=wrap;html=1;fontFamily=Times New Roman;fontColor=#000000;fontSize=16;fontStyle=1" vertex="1" parent="1">
                    <mxGeometry x="160" y="200" width="300" height="60" as="geometry"/>
                </mxCell>
                <mxCell id="81" style="edgeStyle=none;html=1;fontFamily=Times New Roman;fontColor=#000000;fontSize=16;fontStyle=1" edge="1" parent="1" source="82" target="87">
                    <mxGeometry relative="1" as="geometry"/>
                </mxCell>
                <mxCell id="82" value="[UE]UEsConfigurationInitialization" style="rounded=1;whiteSpace=wrap;html=1;fontFamily=Times New Roman;fontColor=#000000;fontSize=16;fontStyle=1" vertex="1" parent="1">
                    <mxGeometry x="-400" y="200" width="300" height="60" as="geometry"/>
                </mxCell>
                <mxCell id="83" style="edgeStyle=none;html=1;fontFamily=Times New Roman;fontColor=#000000;fontSize=16;fontStyle=1" edge="1" parent="1" source="84" target="131">
                    <mxGeometry relative="1" as="geometry"/>
                </mxCell>
                <mxCell id="84" value="[CU]INITIALIZATION" style="rounded=1;whiteSpace=wrap;html=1;fontFamily=Times New Roman;fontColor=#000000;fontSize=16;fontStyle=1" vertex="1" parent="1">
                    <mxGeometry x="635" y="200" width="300" height="60" as="geometry"/>
                </mxCell>
                <mxCell id="85" style="edgeStyle=none;html=1;fontFamily=Times New Roman;fontColor=#000000;fontSize=16;fontStyle=1" edge="1" parent="1" source="87" target="88">
                    <mxGeometry relative="1" as="geometry"/>
                </mxCell>
                <mxCell id="86" style="edgeStyle=none;html=1;fontFamily=Times New Roman;fontColor=#000000;fontSize=16;fontStyle=1" edge="1" parent="1" source="87" target="90">
                    <mxGeometry relative="1" as="geometry"/>
                </mxCell>
                <mxCell id="87" value="RRC_IDLE" style="rhombus;whiteSpace=wrap;html=1;fontFamily=Times New Roman;fontColor=#000000;fontSize=16;fontStyle=1" vertex="1" parent="1">
                    <mxGeometry x="-290" y="300" width="80" height="60" as="geometry"/>
                </mxCell>
                <mxCell id="88" value="Wait" style="rounded=1;whiteSpace=wrap;html=1;fontFamily=Times New Roman;fontColor=#000000;fontSize=16;fontStyle=1" vertex="1" parent="1">
                    <mxGeometry x="-550" y="300" width="120" height="60" as="geometry"/>
                </mxCell>
                <mxCell id="89" style="edgeStyle=none;html=1;fontFamily=Times New Roman;fontColor=#000000;fontSize=16;fontStyle=1" edge="1" parent="1" source="90" target="92">
                    <mxGeometry relative="1" as="geometry"/>
                </mxCell>
                <mxCell id="90" value="[UE]&lt;span style=&quot;background-color: rgb(245, 245, 245); font-size: 16px;&quot;&gt;RRCInitialization&lt;/span&gt;" style="rounded=1;whiteSpace=wrap;html=1;fontFamily=Times New Roman;fontColor=#000000;fontSize=16;fontStyle=1" vertex="1" parent="1">
                    <mxGeometry x="-360" y="390" width="220" height="60" as="geometry"/>
                </mxCell>
                <mxCell id="91" style="edgeStyle=none;html=1;fontFamily=Times New Roman;fontColor=#000000;fontSize=16;fontStyle=1" edge="1" parent="1" source="92" target="94">
                    <mxGeometry relative="1" as="geometry"/>
                </mxCell>
                <mxCell id="92" value="[UE]CCCHConfiguration" style="rounded=1;whiteSpace=wrap;html=1;dashed=1;fontFamily=Times New Roman;fontColor=#000000;fontSize=16;fontStyle=1" vertex="1" parent="1">
                    <mxGeometry x="-360" y="470" width="220" height="60" as="geometry"/>
                </mxCell>
                <mxCell id="93" style="edgeStyle=none;html=1;fontFamily=Times New Roman;fontColor=#000000;fontSize=16;fontStyle=1" edge="1" parent="1" source="94" target="96">
                    <mxGeometry relative="1" as="geometry"/>
                </mxCell>
                <mxCell id="94" value="[UE]MCGConfiguration" style="rounded=1;whiteSpace=wrap;html=1;dashed=1;fontFamily=Times New Roman;fontColor=#000000;fontSize=16;fontStyle=1" vertex="1" parent="1">
                    <mxGeometry x="-360" y="550" width="220" height="60" as="geometry"/>
                </mxCell>
                <mxCell id="95" style="edgeStyle=none;html=1;entryX=0;entryY=0.5;entryDx=0;entryDy=0;exitX=1;exitY=0.5;exitDx=0;exitDy=0;fontFamily=Times New Roman;fontColor=#000000;fontSize=16;fontStyle=1" edge="1" parent="1" source="96" target="101">
                    <mxGeometry relative="1" as="geometry">
                        <Array as="points">
                            <mxPoint x="-90" y="680"/>
                            <mxPoint x="-90" y="330"/>
                        </Array>
                    </mxGeometry>
                </mxCell>
                <mxCell id="96" value="[UE]&lt;span style=&quot;background-color: rgb(245, 245, 245); font-size: 16px;&quot;&gt;RRCSetupRequest&lt;/span&gt;" style="rounded=1;whiteSpace=wrap;html=1;fontFamily=Times New Roman;fontColor=#000000;fontSize=16;fontStyle=1" vertex="1" parent="1">
                    <mxGeometry x="-360" y="650" width="220" height="60" as="geometry"/>
                </mxCell>
                <mxCell id="97" style="edgeStyle=none;html=1;fontFamily=Times New Roman;fontColor=#000000;fontSize=16;fontStyle=1" edge="1" parent="1" source="99" target="103">
                    <mxGeometry relative="1" as="geometry"/>
                </mxCell>
                <mxCell id="98" style="edgeStyle=none;html=1;entryX=1;entryY=0.5;entryDx=0;entryDy=0;fontFamily=Times New Roman;fontColor=#000000;fontSize=16;fontStyle=1" edge="1" parent="1" source="99" target="106">
                    <mxGeometry relative="1" as="geometry"/>
                </mxCell>
                <mxCell id="99" value="RRCSetUp" style="rhombus;whiteSpace=wrap;html=1;fontFamily=Times New Roman;fontColor=#000000;fontSize=16;fontStyle=1" vertex="1" parent="1">
                    <mxGeometry x="-290" y="740" width="80" height="60" as="geometry"/>
                </mxCell>
                <mxCell id="100" style="edgeStyle=none;html=1;fontFamily=Times New Roman;fontColor=#000000;fontSize=16;fontStyle=1" edge="1" parent="1" source="101" target="108">
                    <mxGeometry relative="1" as="geometry"/>
                </mxCell>
                <mxCell id="101" value="[gNB]&lt;span style=&quot;background-color: rgb(245, 245, 245); font-size: 16px;&quot;&gt;RRCSetupRequest&lt;/span&gt;" style="rounded=1;whiteSpace=wrap;html=1;fontFamily=Times New Roman;fontColor=#000000;fontSize=16;fontStyle=1" vertex="1" parent="1">
                    <mxGeometry x="60" y="300" width="220" height="60" as="geometry"/>
                </mxCell>
                <mxCell id="102" style="edgeStyle=none;html=1;fontFamily=Times New Roman;fontColor=#000000;fontSize=16;fontStyle=1" edge="1" parent="1" source="103" target="104">
                    <mxGeometry relative="1" as="geometry"/>
                </mxCell>
                <mxCell id="103" value="&lt;div style=&quot;background-color: rgb(245, 245, 245); font-size: 16px; line-height: 19px;&quot;&gt;&lt;span style=&quot;font-size: 16px;&quot;&gt;Reception_RRCSetup_UE&lt;/span&gt;&lt;/div&gt;" style="rounded=1;whiteSpace=wrap;html=1;fontFamily=Times New Roman;fontColor=#000000;fontSize=16;fontStyle=1" vertex="1" parent="1">
                    <mxGeometry x="-352.5" y="880" width="205" height="60" as="geometry"/>
                </mxCell>
                <mxCell id="104" value="&lt;div style=&quot;background-color: rgb(245, 245, 245); font-size: 16px; line-height: 19px;&quot;&gt;&lt;span style=&quot;font-size: 16px;&quot;&gt;MCG &amp;amp; SCG Configuration&lt;/span&gt;&lt;/div&gt;" style="rounded=1;whiteSpace=wrap;html=1;fontFamily=Times New Roman;fontColor=#000000;fontSize=16;fontStyle=1" vertex="1" parent="1">
                    <mxGeometry x="-335" y="980" width="170" height="60" as="geometry"/>
                </mxCell>
                <mxCell id="105" style="edgeStyle=none;html=1;entryX=0;entryY=0.5;entryDx=0;entryDy=0;exitX=0.5;exitY=0;exitDx=0;exitDy=0;fontFamily=Times New Roman;fontColor=#000000;fontSize=16;fontStyle=1" edge="1" parent="1" source="106" target="96">
                    <mxGeometry relative="1" as="geometry">
                        <Array as="points">
                            <mxPoint x="-507" y="680"/>
                        </Array>
                    </mxGeometry>
                </mxCell>
                <mxCell id="106" value="&lt;div style=&quot;background-color: rgb(245, 245, 245); font-size: 16px; line-height: 19px;&quot;&gt;&lt;div style=&quot;line-height: 19px; font-size: 16px;&quot;&gt;&lt;span style=&quot;font-size: 16px;&quot;&gt;Reception_RRCReject_UE&lt;/span&gt;&lt;/div&gt;&lt;/div&gt;" style="rounded=1;whiteSpace=wrap;html=1;fontFamily=Times New Roman;fontColor=#000000;fontSize=16;fontStyle=1" vertex="1" parent="1">
                    <mxGeometry x="-610" y="740" width="205" height="60" as="geometry"/>
                </mxCell>
                <mxCell id="107" style="edgeStyle=none;html=1;fontFamily=Times New Roman;fontColor=#000000;fontSize=16;fontStyle=1" edge="1" parent="1" source="108" target="110">
                    <mxGeometry relative="1" as="geometry"/>
                </mxCell>
                <mxCell id="108" value="[gNB]Calculate_MCG" style="rounded=1;whiteSpace=wrap;html=1;fontFamily=Times New Roman;fontColor=#000000;fontSize=16;fontStyle=1" vertex="1" parent="1">
                    <mxGeometry x="60" y="400" width="220" height="60" as="geometry"/>
                </mxCell>
                <mxCell id="109" style="edgeStyle=none;html=1;fontFamily=Times New Roman;fontColor=#000000;fontSize=16;fontStyle=1" edge="1" parent="1" source="110" target="112">
                    <mxGeometry relative="1" as="geometry"/>
                </mxCell>
                <mxCell id="110" value="[gNB}Calculate_SCG" style="rounded=1;whiteSpace=wrap;html=1;fontFamily=Times New Roman;fontColor=#000000;fontSize=16;fontStyle=1" vertex="1" parent="1">
                    <mxGeometry x="60" y="470" width="220" height="60" as="geometry"/>
                </mxCell>
                <mxCell id="111" style="edgeStyle=none;html=1;fontFamily=Times New Roman;fontColor=#000000;fontSize=16;fontStyle=1" edge="1" parent="1" source="112" target="114">
                    <mxGeometry relative="1" as="geometry"/>
                </mxCell>
                <mxCell id="112" value="&lt;font style=&quot;font-size: 16px;&quot;&gt;[gNB]gNB_UE+F1AP_ID&lt;/font&gt;" style="rounded=1;whiteSpace=wrap;html=1;fontFamily=Times New Roman;fontColor=#000000;fontSize=16;fontStyle=1" vertex="1" parent="1">
                    <mxGeometry x="25" y="550" width="290" height="60" as="geometry"/>
                </mxCell>
                <mxCell id="113" style="edgeStyle=none;html=1;fontFamily=Times New Roman;fontColor=#000000;fontSize=16;fontStyle=1" edge="1" parent="1" source="114" target="116">
                    <mxGeometry relative="1" as="geometry"/>
                </mxCell>
                <mxCell id="114" value="[gNB]&lt;span style=&quot;font-size: 16px;&quot;&gt;Obtain_&lt;/span&gt;&lt;span style=&quot;font-size: 16px;&quot;&gt;&quot;NR_CGI&quot;&lt;/span&gt;" style="rounded=1;whiteSpace=wrap;html=1;fontFamily=Times New Roman;fontColor=#000000;fontSize=16;fontStyle=1" vertex="1" parent="1">
                    <mxGeometry x="25" y="620" width="290" height="60" as="geometry"/>
                </mxCell>
                <mxCell id="115" style="edgeStyle=none;html=1;fontFamily=Times New Roman;fontColor=#000000;fontSize=16;fontStyle=1" edge="1" parent="1" source="116" target="118">
                    <mxGeometry relative="1" as="geometry"/>
                </mxCell>
                <mxCell id="116" value="[gNB]&lt;span style=&quot;font-size: 16px;&quot;&gt;Allocate_C_RNTI&lt;/span&gt;&lt;span style=&quot;background-color: rgb(255, 255, 255); font-size: 16px;&quot;&gt;()&lt;/span&gt;" style="rounded=1;whiteSpace=wrap;html=1;fontFamily=Times New Roman;fontColor=#000000;fontSize=16;fontStyle=1" vertex="1" parent="1">
                    <mxGeometry x="25" y="690" width="290" height="60" as="geometry"/>
                </mxCell>
                <mxCell id="117" style="edgeStyle=none;html=1;fontFamily=Times New Roman;fontColor=#000000;fontSize=16;fontStyle=1" edge="1" parent="1" source="118" target="120">
                    <mxGeometry relative="1" as="geometry"/>
                </mxCell>
                <mxCell id="118" value="[gNB]&lt;span style=&quot;background-color: rgb(255, 255, 255); font-size: 16px;&quot;&gt;Obtain_CellGroupConfiguration&lt;/span&gt;" style="rounded=1;whiteSpace=wrap;html=1;fontFamily=Times New Roman;fontColor=#000000;fontSize=16;fontStyle=1" vertex="1" parent="1">
                    <mxGeometry x="25" y="760" width="290" height="60" as="geometry"/>
                </mxCell>
                <mxCell id="119" style="edgeStyle=none;html=1;fontFamily=Times New Roman;fontColor=#000000;fontSize=16;fontStyle=1" edge="1" parent="1" source="120" target="123">
                    <mxGeometry relative="1" as="geometry"/>
                </mxCell>
                <mxCell id="120" value="[gNB]&lt;span style=&quot;font-size: 16px;&quot;&gt;Allocate_Transaction_ID&lt;/span&gt;&lt;span style=&quot;background-color: rgb(255, 255, 255); font-size: 16px;&quot;&gt;()&lt;/span&gt;" style="rounded=1;whiteSpace=wrap;html=1;fontFamily=Times New Roman;fontColor=#000000;fontSize=16;fontStyle=1" vertex="1" parent="1">
                    <mxGeometry x="25" y="830" width="290" height="60" as="geometry"/>
                </mxCell>
                <mxCell id="121" style="edgeStyle=none;html=1;entryX=0;entryY=0.5;entryDx=0;entryDy=0;exitX=1;exitY=0.5;exitDx=0;exitDy=0;fontFamily=Times New Roman;fontColor=#000000;fontSize=16;fontStyle=1" edge="1" parent="1" source="123" target="126">
                    <mxGeometry relative="1" as="geometry">
                        <Array as="points">
                            <mxPoint x="390" y="940"/>
                            <mxPoint x="390" y="430"/>
                        </Array>
                    </mxGeometry>
                </mxCell>
                <mxCell id="122" style="edgeStyle=none;html=1;fontFamily=Times New Roman;fontColor=#000000;fontSize=16;fontStyle=1" edge="1" parent="1" source="123" target="141">
                    <mxGeometry relative="1" as="geometry"/>
                </mxCell>
                <mxCell id="123" value="[gNB]&lt;span style=&quot;background-color: rgb(255, 255, 255); font-size: 16px;&quot;&gt;INITIAL_UL_RRC_MESSAGE_TRANSFER&lt;/span&gt;" style="rounded=1;whiteSpace=wrap;html=1;fontFamily=Times New Roman;fontColor=#000000;fontSize=16;fontStyle=1" vertex="1" parent="1">
                    <mxGeometry x="5" y="910" width="330" height="60" as="geometry"/>
                </mxCell>
                <mxCell id="124" style="edgeStyle=none;html=1;fontFamily=Times New Roman;fontColor=#000000;fontSize=16;fontStyle=1" edge="1" parent="1" source="126" target="133">
                    <mxGeometry relative="1" as="geometry"/>
                </mxCell>
                <mxCell id="125" style="edgeStyle=none;html=1;fontFamily=Times New Roman;fontColor=#000000;fontSize=16;fontStyle=1" edge="1" parent="1" source="126" target="135">
                    <mxGeometry relative="1" as="geometry"/>
                </mxCell>
                <mxCell id="126" value="[CU]&lt;span style=&quot;background-color: rgb(255, 255, 255); font-size: 16px;&quot;&gt;INITIAL_UL_RRC_MESSAGE_TRANSFER&lt;/span&gt;" style="rounded=1;whiteSpace=wrap;html=1;fontFamily=Times New Roman;fontColor=#000000;fontSize=16;fontStyle=1" vertex="1" parent="1">
                    <mxGeometry x="610" y="400" width="350" height="60" as="geometry"/>
                </mxCell>
                <mxCell id="127" style="edgeStyle=none;html=1;fontFamily=Times New Roman;fontColor=#000000;fontSize=16;fontStyle=1" edge="1" parent="1" source="128" target="131">
                    <mxGeometry relative="1" as="geometry"/>
                </mxCell>
                <mxCell id="128" value="[gNB]gNB_Data_Response" style="rounded=1;whiteSpace=wrap;html=1;fontFamily=Times New Roman;fontColor=#000000;fontSize=16;fontStyle=1" vertex="1" parent="1">
                    <mxGeometry x="315" y="300" width="220" height="60" as="geometry"/>
                </mxCell>
                <mxCell id="129" style="edgeStyle=none;html=1;fontFamily=Times New Roman;fontColor=#000000;fontSize=16;fontStyle=1" edge="1" parent="1" source="131" target="132">
                    <mxGeometry relative="1" as="geometry"/>
                </mxCell>
                <mxCell id="130" style="edgeStyle=none;html=1;fontFamily=Times New Roman;fontColor=#000000;fontSize=16;fontStyle=1" edge="1" parent="1" source="131" target="126">
                    <mxGeometry relative="1" as="geometry"/>
                </mxCell>
                <mxCell id="131" value="[CU]&lt;span style=&quot;background-color: rgb(255, 255, 255); font-size: 16px;&quot;&gt;RecievegNB_Information&lt;/span&gt;" style="rounded=1;whiteSpace=wrap;html=1;fontFamily=Times New Roman;fontColor=#000000;fontSize=16;fontStyle=1" vertex="1" parent="1">
                    <mxGeometry x="620" y="300" width="330" height="60" as="geometry"/>
                </mxCell>
                <mxCell id="132" value="[CU]Update&lt;span style=&quot;background-color: rgb(255, 255, 255); font-size: 16px;&quot;&gt;gNB_Information&lt;/span&gt;" style="rounded=1;whiteSpace=wrap;html=1;fontFamily=Times New Roman;fontColor=#000000;fontSize=16;fontStyle=1" vertex="1" parent="1">
                    <mxGeometry x="985" y="300" width="330" height="60" as="geometry"/>
                </mxCell>
                <mxCell id="133" value="[CU]UpdateUE&lt;span style=&quot;background-color: rgb(255, 255, 255); font-size: 16px;&quot;&gt;_Information&lt;/span&gt;" style="rounded=1;whiteSpace=wrap;html=1;fontFamily=Times New Roman;fontColor=#000000;fontSize=16;fontStyle=1" vertex="1" parent="1">
                    <mxGeometry x="995" y="400" width="330" height="60" as="geometry"/>
                </mxCell>
                <mxCell id="134" style="edgeStyle=none;html=1;entryX=1;entryY=0.25;entryDx=0;entryDy=0;exitX=0.5;exitY=1;exitDx=0;exitDy=0;fontFamily=Times New Roman;fontColor=#000000;fontSize=16;fontStyle=1" edge="1" parent="1" source="135" target="141">
                    <mxGeometry relative="1" as="geometry">
                        <mxPoint x="360" y="1020" as="targetPoint"/>
                        <Array as="points">
                            <mxPoint x="785" y="600"/>
                            <mxPoint x="430" y="600"/>
                            <mxPoint x="430" y="1015"/>
                        </Array>
                    </mxGeometry>
                </mxCell>
                <mxCell id="135" value="[CU]&lt;span style=&quot;background-color: rgb(255, 255, 255); font-size: 16px;&quot;&gt;DL_RRC_MESSAGE_TRANSFER&lt;/span&gt;" style="rounded=1;whiteSpace=wrap;html=1;fontFamily=Times New Roman;fontColor=#000000;fontSize=16;fontStyle=1" vertex="1" parent="1">
                    <mxGeometry x="620" y="500" width="330" height="60" as="geometry"/>
                </mxCell>
                <mxCell id="136" style="edgeStyle=none;html=1;fontFamily=Times New Roman;fontColor=#000000;fontSize=16;fontStyle=1" edge="1" parent="1" source="137" target="135">
                    <mxGeometry relative="1" as="geometry"/>
                </mxCell>
                <mxCell id="137" value="[CU}RRCSetUp" style="rounded=1;whiteSpace=wrap;html=1;fontFamily=Times New Roman;fontColor=#000000;fontSize=16;fontStyle=1" vertex="1" parent="1">
                    <mxGeometry x="995" y="500" width="330" height="60" as="geometry"/>
                </mxCell>
                <mxCell id="138" style="edgeStyle=none;html=1;entryX=0;entryY=0.5;entryDx=0;entryDy=0;exitX=1;exitY=0.5;exitDx=0;exitDy=0;fontFamily=Times New Roman;fontColor=#000000;fontSize=16;fontStyle=1" edge="1" parent="1" source="141" target="142">
                    <mxGeometry relative="1" as="geometry">
                        <Array as="points">
                            <mxPoint x="450" y="1030"/>
                            <mxPoint x="450" y="990"/>
                        </Array>
                    </mxGeometry>
                </mxCell>
                <mxCell id="139" style="edgeStyle=none;html=1;entryX=0;entryY=0.5;entryDx=0;entryDy=0;exitX=1;exitY=0.5;exitDx=0;exitDy=0;fontFamily=Times New Roman;fontColor=#000000;fontSize=16;fontStyle=1" edge="1" parent="1" source="141" target="143">
                    <mxGeometry relative="1" as="geometry">
                        <Array as="points">
                            <mxPoint x="450" y="1030"/>
                            <mxPoint x="450" y="1080"/>
                        </Array>
                    </mxGeometry>
                </mxCell>
                <mxCell id="140" style="edgeStyle=none;html=1;entryX=1;entryY=0.5;entryDx=0;entryDy=0;exitX=0;exitY=0.5;exitDx=0;exitDy=0;fontFamily=Times New Roman;fontColor=#000000;fontSize=16;fontStyle=1" edge="1" parent="1" source="141" target="99">
                    <mxGeometry relative="1" as="geometry">
                        <Array as="points">
                            <mxPoint x="-50" y="1030"/>
                            <mxPoint x="-50" y="770"/>
                        </Array>
                    </mxGeometry>
                </mxCell>
                <mxCell id="141" value="[gNB]&lt;font style=&quot;font-size: 16px;&quot;&gt;&lt;span style=&quot;font-size: 16px; background-color: rgb(255, 255, 255);&quot;&gt;RRCSetUp&lt;/span&gt;&lt;/font&gt;" style="rounded=1;whiteSpace=wrap;html=1;fontFamily=Times New Roman;fontColor=#000000;fontSize=16;fontStyle=1" vertex="1" parent="1">
                    <mxGeometry x="5" y="1000" width="330" height="60" as="geometry"/>
                </mxCell>
                <mxCell id="142" value="[gNB]&lt;font style=&quot;font-size: 16px;&quot;&gt;&lt;span style=&quot;font-size: 16px; background-color: rgb(255, 255, 255);&quot;&gt;Obtain_CellGroupConfiguration&lt;/span&gt;&lt;/font&gt;" style="rounded=1;whiteSpace=wrap;html=1;fontFamily=Times New Roman;fontColor=#000000;fontSize=16;fontStyle=1" vertex="1" parent="1">
                    <mxGeometry x="470" y="960" width="330" height="60" as="geometry"/>
                </mxCell>
                <mxCell id="143" value="[gNB]&lt;font style=&quot;font-size: 16px;&quot;&gt;&lt;span style=&quot;font-size: 16px; background-color: rgb(255, 255, 255);&quot;&gt;Obtain_&lt;/span&gt;&lt;span style=&quot;font-size: 16px;&quot;&gt;radioBearerConfig&lt;/span&gt;&lt;/font&gt;" style="rounded=1;whiteSpace=wrap;html=1;fontFamily=Times New Roman;fontColor=#000000;fontSize=16;fontStyle=1" vertex="1" parent="1">
                    <mxGeometry x="470" y="1050" width="330" height="60" as="geometry"/>
                </mxCell>
            </root>
        </mxGraphModel>
    </diagram>
</mxfile>